# xmcd
#
# Track frame offsets:
#	150
#	14099
#	21065
#	35506
#	56416
#	71299
#	97738
#	125926
#	131887
#	145861
#	159902
#	172671
#	191042
#	218415
#	233134
#	263475
#
# Disc length: 3851 seconds
#
# Revision: 0
# Processed by: cddbd v1.5.1PL0 Copyright (c) Steve Scherf et al.
# Submitted via: EasyCDDAExtractor 4.6.9.1
#
DISCID=d20f0910
DTITLE=Queens Of The Stone Age - Songs For The Deaf
DYEAR=2002
DGENRE=Alternative
TTITLE0=Hangin Tree
TTITLE1=The Real Song For The Deaf
TTITLE2=Millionaire
TTITLE3=No One Knows
TTITLE4=First It Giveth Number One
TTITLE5=Song For The Deaf
TTITLE6=Sky Is Falling
TTITLE7=Sky Shooters
TTITLE8=Hangin Tree
TTITLE9=Go With The Flow
TTITLE10=Gonna Leave You
TTITLE11=Do It Again
TTITLE12=God
TTITLE13=Another Love Song
TTITLE14=Song For The Deaf
TTITLE15=Mosquito Song
EXTD=
EXTT0=
EXTT1=
EXTT2=
EXTT3=
EXTT4=
EXTT5=
EXTT6=
EXTT7=
EXTT8=
EXTT9=
EXTT10=
EXTT11=
EXTT12=
EXTT13=
EXTT14=
EXTT15=
PLAYORDER=
